<svg width="27" height="27" viewBox="0 0 27 27" fill="none" xmlns="http://www.w3.org/2000/svg">
<path d="M18.2461 13.9531H19.8711V15.5781H18.2461V13.9531Z" fill="white"/>
<path d="M23.1211 6.64062H3.62109V4.20312H21.4961V2.57812H3.62109C3.19012 2.57813 2.77679 2.74933 2.47205 3.05408C2.1673 3.35882 1.99609 3.77215 1.99609 4.20312V21.2656C1.99609 21.6966 2.1673 22.1099 2.47205 22.4147C2.77679 22.7194 3.19012 22.8906 3.62109 22.8906H23.1211C23.5521 22.8906 23.9654 22.7194 24.2701 22.4147C24.5749 22.1099 24.7461 21.6966 24.7461 21.2656V8.26562C24.7461 7.83465 24.5749 7.42132 24.2701 7.11658C23.9654 6.81183 23.5521 6.64063 23.1211 6.64062ZM3.62109 21.2656V8.26562H23.1211V10.7031H16.6211C16.1901 10.7031 15.7768 10.8743 15.472 11.1791C15.1673 11.4838 14.9961 11.8971 14.9961 12.3281V17.2031C14.9961 17.6341 15.1673 18.0474 15.472 18.3522C15.7768 18.6569 16.1901 18.8281 16.6211 18.8281H23.1211V21.2656H3.62109ZM23.1211 12.3281V17.2031H16.6211V12.3281H23.1211Z" fill="white"/>
</svg>
