<svg width="29" height="29" viewBox="0 0 29 29" fill="none" xmlns="http://www.w3.org/2000/svg">
<path d="M7.03566 14.9504H12.3121C12.7958 14.9504 13.1915 14.5546 13.1915 14.071V7.03566C13.1915 6.55199 12.7958 6.15625 12.3121 6.15625H7.03566C6.55199 6.15625 6.15625 6.55199 6.15625 7.03566V14.071C6.15625 14.5546 6.55199 14.9504 7.03566 14.9504ZM7.03566 21.9857H12.3121C12.7958 21.9857 13.1915 21.5899 13.1915 21.1062V17.5886C13.1915 17.1049 12.7958 16.7092 12.3121 16.7092H7.03566C6.55199 16.7092 6.15625 17.1049 6.15625 17.5886V21.1062C6.15625 21.5899 6.55199 21.9857 7.03566 21.9857ZM15.8298 21.9857H21.1062C21.5899 21.9857 21.9857 21.5899 21.9857 21.1062V14.071C21.9857 13.5873 21.5899 13.1915 21.1062 13.1915H15.8298C15.3461 13.1915 14.9504 13.5873 14.9504 14.071V21.1062C14.9504 21.5899 15.3461 21.9857 15.8298 21.9857ZM14.9504 7.03566V10.5533C14.9504 11.037 15.3461 11.4327 15.8298 11.4327H21.1062C21.5899 11.4327 21.9857 11.037 21.9857 10.5533V7.03566C21.9857 6.55199 21.5899 6.15625 21.1062 6.15625H15.8298C15.3461 6.15625 14.9504 6.55199 14.9504 7.03566Z" fill="white"/>
</svg>
