<svg width="29" height="29" viewBox="0 0 29 29" fill="none" xmlns="http://www.w3.org/2000/svg">
<path d="M14.0707 9.32031C13.2452 9.32136 12.4538 9.64974 11.8702 10.2334C11.2865 10.8171 10.9581 11.6085 10.957 12.434H12.54C12.54 11.5895 13.227 10.9033 14.0707 10.9033C14.9144 10.9033 15.6014 11.5895 15.6014 12.434C15.6014 12.9073 15.2207 13.2508 14.639 13.7209C14.4489 13.8698 14.2664 14.028 14.092 14.195C13.3022 14.9841 13.2792 15.8222 13.2792 15.9156V16.4435H14.8621L14.8614 15.9425C14.8621 15.9299 14.8875 15.637 15.2104 15.3149C15.3291 15.1962 15.4787 15.0775 15.6338 14.9524C16.2504 14.453 17.1835 13.6987 17.1835 12.434C17.1829 11.6085 16.8548 10.817 16.2712 10.2333C15.6875 9.64949 14.8961 9.32115 14.0707 9.32031ZM13.2792 17.235H14.8621V18.818H13.2792V17.235Z" fill="white"/>
<path d="M14.071 6.15625C9.70679 6.15625 6.15625 9.70679 6.15625 14.071C6.15625 18.4351 9.70679 21.9857 14.071 21.9857C18.4351 21.9857 21.9857 18.4351 21.9857 14.071C21.9857 9.70679 18.4351 6.15625 14.071 6.15625ZM14.071 20.4027C10.5798 20.4027 7.73919 17.5621 7.73919 14.071C7.73919 10.5798 10.5798 7.73919 14.071 7.73919C17.5621 7.73919 20.4027 10.5798 20.4027 14.071C20.4027 17.5621 17.5621 20.4027 14.071 20.4027Z" fill="white"/>
</svg>
