<svg width="379" height="370" viewBox="0 0 379 370" fill="none" xmlns="http://www.w3.org/2000/svg">
<path d="M208.46 132.997C209.435 132.976 210.41 132.956 211.415 132.934C225.195 132.861 236.862 137.978 246.808 147.247C258.054 159.584 260.805 172.174 260.259 188.088C259.46 200.864 252.553 211.488 243.243 220.087C230.112 231.078 215.41 232.469 198.665 231.247C194.502 230.464 191.117 229.208 187.397 227.247C186.444 226.749 185.49 226.252 184.508 225.739C173.246 219.298 166.841 210.886 161.789 199.247C161.212 197.926 161.212 197.926 160.624 196.579C157.728 185.666 157.866 170.878 163.217 160.809C163.76 159.964 164.303 159.118 164.862 158.247C165.457 157.298 166.053 156.349 166.666 155.372C176.622 140.862 190.747 133.088 208.46 132.997ZM180.227 158.247C172.166 168.006 171.017 178.008 172.032 190.247C174.359 199.393 179.919 207.338 187.397 213.247C198.168 219.464 209.399 221.232 221.648 218.446C232.739 214.343 240.282 207.081 245.723 196.923C249.1 188.591 249.743 176.623 246.168 168.309C240.464 157.916 233.009 150.457 221.656 146.165C205.529 141.97 191.393 146.353 180.227 158.247Z" fill="white"/>
<path d="M105.739 132.055C120.014 131.42 132.672 136.287 143.735 144.809C150.262 150.726 150.262 150.726 150.969 154.872C150.521 157.247 150.521 157.247 149.433 159.059C146.071 161.071 144.154 160.929 140.278 160.247C138.137 158.417 136.3 156.412 134.388 154.356C126.394 147.04 115.804 145.756 105.339 145.981C94.3945 146.711 87.1367 151.432 79.8429 159.247C77.8518 161.802 76.1626 164.362 74.7212 167.247C74.3489 167.97 73.9765 168.693 73.5929 169.438C72.3278 173.299 72.2799 176.902 72.2885 180.934C72.2909 182.136 72.2909 182.136 72.2935 183.363C72.4269 189.671 73.5322 194.718 76.7699 200.247C77.3403 201.278 77.9107 202.309 78.4984 203.372C84.345 210.468 91.023 216.309 100.329 218.247C113.179 219.483 124.126 217.827 134.432 209.774C136.414 208.088 136.414 208.088 138.934 205.372C141.302 203.247 141.302 203.247 143.927 202.684C147.31 203.446 148.563 204.453 150.521 207.247C150.189 213.502 147.348 216.018 142.867 220.137C139.166 223.153 135.409 225.259 131.059 227.247C130.019 227.835 130.019 227.835 128.958 228.434C122.829 231.495 116.811 231.635 110.06 231.684C108.711 231.699 108.711 231.699 107.335 231.715C94.2662 231.547 83.0083 226.523 73.3448 218.001C62.6418 206.936 57.7238 193.718 58.012 178.649C59.2423 165.572 65.8671 153.133 75.7456 144.247C84.7604 137.626 94.4461 132.98 105.739 132.055Z" fill="white"/>
<path d="M280.611 200.247C285.887 202.03 288.395 204.354 290.854 209.247C291.544 213.965 291.512 216.815 288.805 220.81C285.544 224.791 281.569 228.034 277.538 231.247C278.327 231.296 279.117 231.345 279.93 231.395C280.958 231.47 281.985 231.545 283.043 231.622C284.576 231.726 284.576 231.726 286.14 231.833C288.805 232.247 288.805 232.247 290.854 234.247C290.305 237.783 290.305 237.783 288.805 239.247C285.078 239.499 281.337 239.432 277.602 239.435C276.549 239.447 275.496 239.459 274.411 239.472C273.405 239.474 272.4 239.475 271.364 239.477C269.973 239.484 269.973 239.484 268.555 239.49C266.27 239.247 266.27 239.247 264.221 237.247C264.449 232.795 266.24 230.808 269.471 227.81C270.298 227.03 271.124 226.25 271.976 225.446C274.109 223.561 276.289 221.839 278.562 220.122C281.399 217.822 281.638 217.237 282.723 213.497C283.042 210.159 283.042 210.159 280.611 208.247C277.538 207.914 277.538 207.914 274.465 208.247C271.714 210.933 271.33 213.623 270.367 217.247C268.661 217.29 266.952 217.288 265.246 217.247C264.221 216.247 264.221 216.247 263.773 212.622C263.799 208.045 265.693 205.835 268.823 202.595C272.311 199.551 276.165 199.81 280.611 200.247Z" fill="white"/>
<path d="M222.918 27.9776C223.721 28.2882 224.524 28.5987 225.352 28.9187C267.219 45.4129 301.582 76.2298 320.036 117.697C324.914 129.125 328.382 140.775 330.876 152.94C331.05 153.788 331.224 154.635 331.404 155.509C332.93 163.695 333.148 171.666 333.102 179.972C333.102 181.441 333.102 182.911 333.103 184.38C333.104 188.331 333.092 192.281 333.078 196.231C333.065 200.374 333.064 204.517 333.062 208.66C333.056 216.487 333.039 224.315 333.019 232.143C332.997 241.062 332.986 249.98 332.976 258.899C332.955 277.23 332.92 295.561 332.875 313.892C334.152 312.786 335.426 311.678 336.701 310.569C337.411 309.952 338.121 309.335 338.852 308.7C341.426 306.399 343.773 303.937 346.112 301.4C347.042 300.419 347.972 299.439 348.904 298.461C350.334 296.957 351.755 295.447 353.153 293.913C360.934 285.408 360.934 285.408 365.678 284.161C370.268 284.044 372.22 284.404 375.921 287.275C378.748 291.105 379.317 293.113 378.857 297.897C376.398 302.017 373.613 305.393 370.232 308.782C369.321 309.699 368.41 310.616 367.472 311.56C366.487 312.542 365.501 313.524 364.515 314.505C363.497 315.525 362.479 316.545 361.461 317.565C359.336 319.694 357.208 321.818 355.076 323.94C352.345 326.661 349.622 329.39 346.902 332.122C344.805 334.226 342.704 336.325 340.601 338.423C339.595 339.428 338.591 340.435 337.587 341.443C336.188 342.847 334.782 344.245 333.375 345.642C332.577 346.438 331.779 347.235 330.956 348.056C328.275 350.41 326.193 350.832 322.692 351.381C318.696 350.857 318.086 350.539 315.278 347.977C314.579 347.339 313.879 346.7 313.158 346.043C308.952 342.049 304.832 337.973 300.735 333.867C299.786 332.917 298.836 331.968 297.886 331.02C295.912 329.048 293.941 327.074 291.971 325.099C289.444 322.567 286.913 320.039 284.381 317.512C282.427 315.561 280.475 313.608 278.523 311.654C277.138 310.267 275.75 308.882 274.362 307.497C273.527 306.659 272.693 305.821 271.833 304.958C270.727 303.851 270.727 303.851 269.599 302.721C266.721 299.629 266.57 297.137 266.608 292.937C267.063 289.768 268.653 288.081 270.899 285.9C274.492 284.104 277.989 284.223 281.895 284.901C283.734 286.096 283.734 286.096 285.511 287.748C286.197 288.382 286.884 289.017 287.591 289.671C292.073 294.01 296.497 298.402 300.888 302.833C301.862 303.813 302.837 304.792 303.812 305.771C306.172 308.143 308.529 310.517 310.884 312.892C310.954 294.729 311.007 276.565 311.039 258.401C311.055 249.966 311.075 241.53 311.11 233.094C311.14 225.732 311.159 218.37 311.166 211.007C311.17 207.118 311.179 203.228 311.201 199.339C311.438 169.31 311.438 169.31 304.699 140.194C304.246 138.895 304.246 138.895 303.784 137.569C297.21 119.264 287.384 102.006 273.898 87.9597C272.789 86.631 271.685 85.2982 270.587 83.9609C257.303 68.8215 239.145 58.8523 220.919 50.9707C219.743 50.4506 219.743 50.4506 218.543 49.92C212.139 47.2018 205.74 45.6298 198.927 44.2852C197.912 44.0732 196.896 43.8612 195.85 43.6428C176.232 39.6561 155.433 39.0862 135.951 43.9728C134.117 44.3903 134.117 44.3903 132.246 44.8163C96.239 53.5643 64.2816 76.9003 44.5484 108.238C26.1609 138.869 19.4833 173.747 24.9945 208.923C25.2515 210.706 25.2515 210.706 25.5138 212.524C30.3297 241.049 45.4247 266.124 64.979 286.9C65.5266 287.501 66.0743 288.101 66.6385 288.72C87.3587 310.613 116.849 322.654 145.948 327.888C146.876 328.061 147.805 328.235 148.762 328.413C164.434 330.748 181.605 329.728 196.928 325.888C198.293 325.613 199.66 325.343 201.028 325.08C213.617 322.56 225.251 317.914 236.288 311.338C236.992 310.92 237.697 310.502 238.423 310.072C239.746 309.272 241.055 308.449 242.346 307.6C246.723 304.912 249.823 304.603 254.899 305.281C258.746 306.458 259.914 308.428 261.903 311.893C262.566 316.019 262.315 318.107 260.368 321.804C257.307 325.637 254.195 327.494 249.907 329.762C249.122 330.187 248.337 330.612 247.529 331.05C238.629 335.745 229.369 339.459 219.919 342.883C218.793 343.293 217.667 343.703 216.506 344.125C213.334 345.183 210.165 346.061 206.924 346.882C206.251 347.063 205.577 347.243 204.884 347.429C165.196 357.744 120.044 350.081 84.9097 329.691C76.4369 324.694 68.4206 319.355 60.9805 312.892C59.7551 311.831 59.7551 311.831 58.5049 310.749C31.2932 286.694 11.2956 254.992 4.42576 219.042C3.98493 216.833 3.47536 214.646 2.96002 212.454C-4.35718 179.417 2.48038 143.03 16.9976 112.952C17.2949 112.332 17.5922 111.711 17.8986 111.071C25.7904 94.8469 36.3984 80.8172 48.9852 67.9656C49.7428 67.1576 50.5005 66.3496 51.2812 65.5171C93.6169 21.2462 166.049 5.94647 222.918 27.9776Z" fill="white"/>
</svg>
