<svg width="29" height="29" viewBox="0 0 29 29" fill="none" xmlns="http://www.w3.org/2000/svg">
<path d="M21.7741 19.3556C21.3989 18.467 20.8546 17.6599 20.1712 16.9792C19.49 16.2965 18.683 15.7522 17.7948 15.3763C17.7869 15.3724 17.7789 15.3704 17.771 15.3664C19.0099 14.4715 19.8153 13.0139 19.8153 11.3693C19.8153 8.64487 17.6079 6.4375 14.8835 6.4375C12.1591 6.4375 9.95173 8.64487 9.95173 11.3693C9.95173 13.0139 10.7571 14.4715 11.996 15.3684C11.9881 15.3724 11.9801 15.3744 11.9722 15.3783C11.0813 15.7542 10.2818 16.2931 9.59577 16.9812C8.9131 17.6624 8.3688 18.4694 7.99294 19.3576C7.6237 20.2271 7.42456 21.1593 7.4063 22.1038C7.40577 22.1251 7.40949 22.1462 7.41725 22.1659C7.42501 22.1857 7.43664 22.2037 7.45147 22.2189C7.46629 22.2341 7.48401 22.2462 7.50358 22.2544C7.52314 22.2627 7.54416 22.2669 7.56539 22.2669H8.75856C8.84606 22.2669 8.91566 22.1973 8.91765 22.1118C8.95742 20.5766 9.57389 19.1388 10.6637 18.0491C11.7912 16.9215 13.2886 16.3011 14.8835 16.3011C16.4784 16.3011 17.9758 16.9215 19.1034 18.0491C20.1931 19.1388 20.8096 20.5766 20.8494 22.1118C20.8514 22.1993 20.921 22.2669 21.0085 22.2669H22.2016C22.2229 22.2669 22.2439 22.2627 22.2634 22.2544C22.283 22.2462 22.3007 22.2341 22.3156 22.2189C22.3304 22.2037 22.342 22.1857 22.3498 22.1659C22.3575 22.1462 22.3612 22.1251 22.3607 22.1038C22.3408 21.1533 22.144 20.2286 21.7741 19.3556V19.3556ZM14.8835 14.7897C13.9707 14.7897 13.1116 14.4337 12.4653 13.7874C11.819 13.1411 11.4631 12.2821 11.4631 11.3693C11.4631 10.4565 11.819 9.59742 12.4653 8.95112C13.1116 8.30481 13.9707 7.94885 14.8835 7.94885C15.7963 7.94885 16.6554 8.30481 17.3017 8.95112C17.948 9.59742 18.3039 10.4565 18.3039 11.3693C18.3039 12.2821 17.948 13.1411 17.3017 13.7874C16.6554 14.4337 15.7963 14.7897 14.8835 14.7897Z" fill="white"/>
</svg>
