<svg width="1441" height="1040" viewBox="0 0 1441 1040" fill="none" xmlns="http://www.w3.org/2000/svg">
<g clip-path="url(#clip0_221_10513)">
<rect width="1440" height="1040" transform="translate(0.5)" fill="white"/>
<line x1="713.872" y1="-3.46777" x2="713.872" y2="1016.59" stroke="#969696" stroke-opacity="0.12"/>
<line x1="796.607" y1="-3.68501" x2="1280.49" y2="988.432" stroke="#969696" stroke-opacity="0.12"/>
<line y1="-0.5" x2="1103.83" y2="-0.5" transform="matrix(0.438371 -0.898794 -0.898794 -0.438371 177.361 923.552)" stroke="#969696" stroke-opacity="0.12"/>
<line x1="966.822" y1="-3.88034" x2="1499.55" y2="355.45" stroke="#969696" stroke-opacity="0.12"/>
<line y1="-0.5" x2="642.588" y2="-0.5" transform="matrix(0.829038 -0.559193 -0.559193 -0.829038 -57.3535 344.356)" stroke="#969696" stroke-opacity="0.12"/>
<line x1="879.502" y1="-3.81937" x2="1466.29" y2="582.97" stroke="#969696" stroke-opacity="0.12"/>
<line y1="-0.5" x2="829.845" y2="-0.5" transform="matrix(0.707107 -0.707107 -0.707107 -0.707107 -39.4863 581.885)" stroke="#969696" stroke-opacity="0.12"/>
<line x1="-237.841" y1="6.32227" x2="1678.84" y2="6.32227" stroke="#969696" stroke-opacity="0.12"/>
<line x1="-237.841" y1="20.2881" x2="1678.84" y2="20.2881" stroke="#969696" stroke-opacity="0.12"/>
<line x1="-237.841" y1="35.9521" x2="1678.84" y2="35.9521" stroke="#969696" stroke-opacity="0.12"/>
<line x1="-237.841" y1="53.3037" x2="1678.84" y2="53.3037" stroke="#969696" stroke-opacity="0.12"/>
<line x1="-237.841" y1="73.1797" x2="1678.84" y2="73.1797" stroke="#969696" stroke-opacity="0.12"/>
<line x1="-237.841" y1="97.0986" x2="1678.84" y2="97.0986" stroke="#969696" stroke-opacity="0.12"/>
<line x1="-237.841" y1="124.726" x2="1678.84" y2="124.726" stroke="#969696" stroke-opacity="0.12"/>
<line x1="-237.841" y1="157.741" x2="1678.84" y2="157.741" stroke="#969696" stroke-opacity="0.12"/>
<line x1="-237.841" y1="197.494" x2="1678.84" y2="197.494" stroke="#969696" stroke-opacity="0.12"/>
<line x1="-237.841" y1="247.86" x2="1678.84" y2="247.86" stroke="#969696" stroke-opacity="0.12"/>
<line x1="-237.841" y1="310.186" x2="1678.84" y2="310.186" stroke="#969696" stroke-opacity="0.12"/>
<line x1="-237.841" y1="397.688" x2="1678.84" y2="397.688" stroke="#969696" stroke-opacity="0.12"/>
<line x1="-237.841" y1="528.285" x2="1678.84" y2="528.285" stroke="#969696" stroke-opacity="0.12"/>
<rect x="-237.091" y="-116.25" width="1915.18" height="1230.5" stroke="#969696" stroke-opacity="0.12" stroke-width="1.5"/>
</g>
<defs>
<clipPath id="clip0_221_10513">
<rect width="1440" height="1040" fill="white" transform="translate(0.5)"/>
</clipPath>
</defs>
</svg>
