<svg width="30" height="29" viewBox="0 0 30 29" fill="none" xmlns="http://www.w3.org/2000/svg">
<path d="M15 19.333C17.002 19.333 18.625 17.71 18.625 15.708C18.625 13.706 17.002 12.083 15 12.083C12.998 12.083 11.375 13.706 11.375 15.708C11.375 17.71 12.998 19.333 15 19.333Z" stroke="#949494" stroke-width="1.5"/>
<path d="M12.3154 25.3751H17.6852C21.4564 25.3751 23.3427 25.3751 24.6972 24.4869C25.2818 24.1041 25.7852 23.6097 26.1786 23.0321C27.0837 21.7029 27.0837 19.8506 27.0837 16.1482C27.0837 12.4459 27.0837 10.5935 26.1786 9.26435C25.7852 8.68676 25.2818 8.19239 24.6972 7.80951C23.8272 7.23797 22.7373 7.03376 21.0686 6.96126C20.2723 6.96126 19.5872 6.36918 19.4313 5.60189C19.3122 5.03986 19.0026 4.53618 18.5551 4.176C18.1075 3.81581 17.5492 3.6212 16.9747 3.62506H13.0259C11.8321 3.62506 10.8038 4.45276 10.5694 5.60189C10.4135 6.36918 9.72837 6.96126 8.93208 6.96126C7.26458 7.03376 6.17466 7.23918 5.30345 7.80951C4.71927 8.19251 4.21628 8.68687 3.82324 9.26435C2.91699 10.5935 2.91699 12.4447 2.91699 16.1482C2.91699 19.8518 2.91699 21.7017 3.82203 23.0321C4.21353 23.6073 4.7162 24.1015 5.30345 24.4869C6.65799 25.3751 8.5442 25.3751 12.3154 25.3751Z" stroke="#949494" stroke-width="1.5"/>
<path d="M23.4583 12.083H22.25" stroke="#949494" stroke-width="1.5" stroke-linecap="round"/>
</svg>
