<svg width="18" height="18" viewBox="0 0 18 18" fill="none" xmlns="http://www.w3.org/2000/svg">
<path d="M17.294 15.147L9.97085 1.54738C9.45179 0.583164 8.06905 0.583164 7.54956 1.54738L0.226825 15.147C0.114124 15.3563 0.0576203 15.5913 0.0628303 15.829C0.0680403 16.0666 0.134786 16.2989 0.256552 16.5031C0.378318 16.7073 0.550944 16.8764 0.75758 16.994C0.964216 17.1115 1.1978 17.1735 1.43554 17.1738H16.0832C16.3211 17.1739 16.5549 17.1122 16.7619 16.9948C16.9688 16.8773 17.1417 16.7083 17.2637 16.504C17.3858 16.2998 17.4527 16.0674 17.458 15.8295C17.4633 15.5916 17.4068 15.3565 17.294 15.147ZM8.76042 15.0684C8.59045 15.0684 8.4243 15.018 8.28298 14.9235C8.14165 14.8291 8.0315 14.6949 7.96646 14.5379C7.90142 14.3808 7.8844 14.208 7.91756 14.0413C7.95072 13.8746 8.03256 13.7215 8.15275 13.6013C8.27293 13.4811 8.42606 13.3993 8.59276 13.3661C8.75947 13.333 8.93226 13.35 9.08929 13.415C9.24632 13.4801 9.38053 13.5902 9.47496 13.7315C9.56939 13.8729 9.61979 14.039 9.61979 14.209C9.61979 14.4369 9.52925 14.6555 9.36809 14.8167C9.20692 14.9778 8.98834 15.0684 8.76042 15.0684ZM9.6937 6.4252L9.44706 11.6674C9.44706 11.8497 9.37463 12.0246 9.2457 12.1535C9.11676 12.2824 8.9419 12.3549 8.75956 12.3549C8.57722 12.3549 8.40236 12.2824 8.27342 12.1535C8.14449 12.0246 8.07206 11.8497 8.07206 11.6674L7.82542 6.42734C7.81988 6.30213 7.8396 6.17708 7.88342 6.05965C7.92723 5.94222 7.99424 5.83481 8.08045 5.74383C8.16666 5.65285 8.2703 5.58016 8.38521 5.53008C8.50011 5.48001 8.62391 5.45359 8.74925 5.45238H8.75827C8.88446 5.45232 9.00935 5.47782 9.12541 5.52735C9.24147 5.57688 9.34629 5.64941 9.43355 5.74056C9.52081 5.83171 9.58869 5.9396 9.63311 6.05771C9.67753 6.17582 9.69755 6.30171 9.69198 6.42777L9.6937 6.4252Z" fill="#FFA621"/>
</svg>
