<svg width="31" height="25" viewBox="0 0 31 25" fill="none" xmlns="http://www.w3.org/2000/svg">
<path d="M24.7487 14.042C25.1855 14.042 25.5519 13.894 25.8479 13.598C26.1439 13.302 26.2914 12.9361 26.2904 12.5003C26.2893 12.0645 26.1413 11.6987 25.8464 11.4027C25.5514 11.1067 25.1855 10.9587 24.7487 10.9587H20.1237C19.6869 10.9587 19.321 11.1067 19.026 11.4027C18.7311 11.6987 18.5831 12.0645 18.582 12.5003C18.581 12.9361 18.729 13.3025 19.026 13.5995C19.3231 13.8966 19.6889 14.044 20.1237 14.042H24.7487ZM24.7487 9.41699C25.1855 9.41699 25.5519 9.26899 25.8479 8.97299C26.1439 8.67699 26.2914 8.3111 26.2904 7.87533C26.2893 7.43955 26.1413 7.07366 25.8464 6.77766C25.5514 6.48166 25.1855 6.33366 24.7487 6.33366H20.1237C19.6869 6.33366 19.321 6.48166 19.026 6.77766C18.7311 7.07366 18.5831 7.43955 18.582 7.87533C18.581 8.3111 18.729 8.67751 19.026 8.97453C19.3231 9.27156 19.6889 9.41905 20.1237 9.41699H24.7487ZM10.8737 14.042C9.9487 14.042 9.11363 14.1258 8.36849 14.2933C7.62335 14.4608 6.96814 14.7239 6.40286 15.0826C5.86328 15.4166 5.45217 15.7959 5.16953 16.2204C4.88689 16.6448 4.74557 17.1007 4.74557 17.5878C4.74557 17.8962 4.8612 18.1531 5.09245 18.3587C5.3237 18.5642 5.60634 18.667 5.94037 18.667H15.807C16.1411 18.667 16.4237 18.5575 16.6549 18.3386C16.8862 18.1197 17.0018 17.8437 17.0018 17.5107C17.0018 17.0739 16.8605 16.65 16.5779 16.2389C16.2952 15.8278 15.8841 15.4423 15.3445 15.0826C14.7793 14.7229 14.124 14.4593 13.3789 14.2917C12.6338 14.1242 11.7987 14.041 10.8737 14.042ZM10.8737 12.5003C11.7216 12.5003 12.4472 12.1987 13.0505 11.5954C13.6538 10.9921 13.956 10.2659 13.957 9.41699C13.9581 8.56805 13.6564 7.84244 13.0521 7.24016C12.4477 6.63788 11.7216 6.33571 10.8737 6.33366C10.0258 6.3316 9.30017 6.63377 8.69687 7.24016C8.09356 7.84655 7.79139 8.57216 7.79037 9.41699C7.78934 10.2618 8.0915 10.988 8.69687 11.5954C9.30223 12.2028 10.0278 12.5044 10.8737 12.5003ZM3.16536 24.8337C2.31745 24.8337 1.59184 24.532 0.988531 23.9287C0.385226 23.3254 0.083059 22.5993 0.0820312 21.7503V3.25033C0.0820312 2.40241 0.384198 1.6768 0.988531 1.07349C1.59286 0.470186 2.31848 0.16802 3.16536 0.166992H27.832C28.6799 0.166992 29.4061 0.469159 30.0104 1.07349C30.6147 1.67783 30.9164 2.40344 30.9154 3.25033V21.7503C30.9154 22.5982 30.6137 23.3244 30.0104 23.9287C29.4071 24.533 28.681 24.8347 27.832 24.8337H3.16536Z" fill="#949494"/>
</svg>
