<svg width="23" height="23" viewBox="0 0 23 23" fill="none" xmlns="http://www.w3.org/2000/svg">
<path fill-rule="evenodd" clip-rule="evenodd" d="M11.5 23C13.0102 23 14.5056 22.7025 15.9009 22.1246C17.2961 21.5467 18.5639 20.6996 19.6317 19.6317C20.6996 18.5639 21.5467 17.2961 22.1246 15.9009C22.7025 14.5056 23 13.0102 23 11.5C23 9.9898 22.7025 8.49438 22.1246 7.09914C21.5467 5.7039 20.6996 4.43615 19.6317 3.36827C18.5639 2.3004 17.2961 1.45331 15.9009 0.875385C14.5056 0.297456 13.0102 -2.25038e-08 11.5 0C8.45001 4.54484e-08 5.52494 1.2116 3.36827 3.36827C1.2116 5.52494 0 8.45001 0 11.5C0 14.55 1.2116 17.4751 3.36827 19.6317C5.52494 21.7884 8.45001 23 11.5 23ZM11.2036 16.1511L17.5924 8.48444L15.6298 6.84889L10.1353 13.4409L7.29228 10.5966L5.4855 12.4034L9.31883 16.2367L10.3078 17.2257L11.2036 16.1511Z" fill="#949494"/>
</svg>
