<svg width="33" height="33" viewBox="0 0 33 33" fill="none" xmlns="http://www.w3.org/2000/svg">
<rect width="33" height="33" rx="16.5" fill="white"/>
<path d="M15.8125 9.625C16.6102 9.625 17.3753 9.93971 17.9393 10.4999C18.5034 11.0601 18.8203 11.8198 18.8203 12.6121C18.8203 13.4043 18.5034 14.1641 17.9393 14.7242C17.3753 15.2844 16.6102 15.5991 15.8125 15.5991C15.0148 15.5991 14.2497 15.2844 13.6857 14.7242C13.1216 14.1641 12.8047 13.4043 12.8047 12.6121C12.8047 11.8198 13.1216 11.0601 13.6857 10.4999C14.2497 9.93971 15.0148 9.625 15.8125 9.625ZM9.79688 11.7586C10.2781 11.7586 10.725 11.8866 11.1117 12.1171C10.9828 13.3375 11.3438 14.5494 12.0828 15.4967C11.6531 16.316 10.7937 16.8793 9.79688 16.8793C9.11311 16.8793 8.45736 16.6096 7.97387 16.1294C7.49037 15.6492 7.21875 14.998 7.21875 14.319C7.21875 13.6399 7.49037 12.9887 7.97387 12.5085C8.45736 12.0284 9.11311 11.7586 9.79688 11.7586ZM21.8281 11.7586C22.5119 11.7586 23.1676 12.0284 23.6511 12.5085C24.1346 12.9887 24.4062 13.6399 24.4062 14.319C24.4062 14.998 24.1346 15.6492 23.6511 16.1294C23.1676 16.6096 22.5119 16.8793 21.8281 16.8793C20.8313 16.8793 19.9719 16.316 19.5422 15.4967C20.2911 14.5359 20.6389 13.3257 20.5133 12.1171C20.9 11.8866 21.3469 11.7586 21.8281 11.7586ZM10.2266 20.5065C10.2266 18.7398 12.7273 17.306 15.8125 17.306C18.8977 17.306 21.3984 18.7398 21.3984 20.5065V22H10.2266V20.5065ZM5.5 22V20.7198C5.5 19.5335 7.12422 18.535 9.32422 18.2448C8.81719 18.8252 8.50781 19.6274 8.50781 20.5065V22H5.5ZM26.125 22H23.1172V20.5065C23.1172 19.6274 22.8078 18.8252 22.3008 18.2448C24.5008 18.535 26.125 19.5335 26.125 20.7198V22Z" fill="#949494"/>
</svg>
