<svg width="33" height="33" viewBox="0 0 33 33" fill="none" xmlns="http://www.w3.org/2000/svg">
<rect width="33" height="33" rx="16.5" fill="white"/>
<path d="M12.0055 19.2024L20.3868 13.1914L21.2455 14.3887L12.8642 20.3997L12.0055 19.2024ZM13.1919 12.0054C12.8741 12.2328 12.6597 12.5771 12.5958 12.9627C12.5319 13.3482 12.6238 13.7433 12.8512 14.0611C13.0786 14.3789 13.423 14.5933 13.8085 14.6572C14.194 14.7211 14.5891 14.6292 14.9069 14.4018C15.2247 14.1743 15.4391 13.83 15.503 13.4445C15.5669 13.0589 15.475 12.6638 15.2476 12.346C15.0201 12.0283 14.6758 11.8138 14.2903 11.75C13.9047 11.6861 13.5096 11.7779 13.1919 12.0054ZM18.3441 19.1894C18.0263 19.4168 17.8119 19.7611 17.748 20.1466C17.6841 20.5322 17.776 20.9273 18.0034 21.2451C18.2309 21.5628 18.5752 21.7773 18.9607 21.8411C19.3463 21.905 19.7414 21.8132 20.0591 21.5857C20.3769 21.3583 20.5913 21.014 20.6552 20.6284C20.7191 20.2429 20.6273 19.8478 20.3998 19.53C20.1724 19.2123 19.828 18.9978 19.4425 18.9339C19.057 18.8701 18.6619 18.9619 18.3441 19.1894Z" fill="#949494"/>
</svg>
