<svg width="29" height="27" viewBox="0 0 29 27" fill="none" xmlns="http://www.w3.org/2000/svg">
<path d="M22.7615 18.5197C24.7027 19.4948 26.367 21.0597 27.5818 23.0166C27.8224 23.4042 27.9427 23.5979 27.9843 23.8662C28.0688 24.4115 27.6959 25.0819 27.1881 25.2976C26.9382 25.4038 26.6571 25.4038 26.0948 25.4038M20.0948 12.7801C22.0705 11.7983 23.4282 9.75962 23.4282 7.40381C23.4282 5.04799 22.0705 3.00929 20.0948 2.02749M17.4282 7.40381C17.4282 10.7175 14.7419 13.4038 11.4282 13.4038C8.11446 13.4038 5.42817 10.7175 5.42817 7.40381C5.42817 4.0901 8.11446 1.40381 11.4282 1.40381C14.7419 1.40381 17.4282 4.0901 17.4282 7.40381ZM2.17381 22.6549C4.29955 19.4632 7.654 17.4038 11.4282 17.4038C15.2023 17.4038 18.5568 19.4632 20.6825 22.6549C21.1482 23.3541 21.3811 23.7038 21.3543 24.1504C21.3334 24.4981 21.1054 24.9238 20.8276 25.1339C20.4707 25.4038 19.9799 25.4038 18.9984 25.4038H3.85798C2.8764 25.4038 2.38561 25.4038 2.02875 25.1339C1.7509 24.9238 1.52295 24.4981 1.50208 24.1504C1.47527 23.7038 1.70812 23.3541 2.17381 22.6549Z" stroke="white" stroke-width="2" stroke-linecap="round" stroke-linejoin="round"/>
</svg>
