<svg width="33" height="33" viewBox="0 0 33 33" fill="none" xmlns="http://www.w3.org/2000/svg">
<rect width="33" height="33" rx="16.5" fill="white"/>
<path d="M10.9512 11.161C9.72404 12.4347 8.97277 14.092 8.82365 15.8543C8.67453 17.6167 9.13666 19.3766 10.1323 20.8384C11.128 22.3001 12.5966 23.3746 14.2912 23.881C15.9857 24.3875 17.803 24.2952 19.4375 23.6196C19.5482 22.8977 19.3057 22.2047 19.2065 21.9622C18.9852 21.4232 18.2556 20.5021 17.038 19.2248C16.7127 18.8832 16.7339 18.6213 16.8504 17.8417L16.8629 17.7541C16.9418 17.2209 17.0746 16.9052 18.8697 16.6203C19.7821 16.4759 20.0218 16.8398 20.3538 17.3451L20.4655 17.5106C20.7812 17.9726 21.0151 18.0785 21.3683 18.2383C21.5271 18.3105 21.7244 18.4019 21.9891 18.5511C22.6167 18.9101 22.6167 19.3153 22.6167 20.2027V20.3038C22.6167 20.6801 22.5801 21.0112 22.5224 21.299C23.2609 20.3721 23.7756 19.2871 24.0264 18.1287C24.2771 16.9703 24.2571 15.7697 23.9679 14.6203C23.6787 13.4709 23.1281 12.4037 22.359 11.5019C21.59 10.6 20.6231 9.88787 19.5338 9.42081C19.0015 9.77982 18.271 10.289 18.0159 10.6384C17.886 10.8164 17.7012 11.7279 17.1016 11.803C16.9456 11.8222 16.7348 11.8088 16.5115 11.7943C15.9129 11.7558 15.0947 11.7029 14.8329 12.4142C14.6664 12.8646 14.6376 14.0889 15.1756 14.7242C15.2622 14.8252 15.2786 15.0129 15.2199 15.2237C15.1429 15.5 14.9879 15.6684 14.9388 15.703C14.8464 15.6491 14.6616 15.4345 14.5355 15.2892C14.2343 14.9369 13.857 14.4999 13.3699 14.3652C13.1929 14.3161 12.9984 14.2757 12.8088 14.2352C12.2804 14.1246 11.6827 13.9985 11.5431 13.702C11.4411 13.4845 11.4421 13.1851 11.4421 12.8694C11.4421 12.4681 11.4421 12.0147 11.2457 11.5749C11.1769 11.4182 11.0766 11.2774 10.9512 11.161ZM16.5 26.125C11.1841 26.125 6.875 21.8159 6.875 16.5C6.875 11.1841 11.1841 6.875 16.5 6.875C21.8159 6.875 26.125 11.1841 26.125 16.5C26.125 21.8159 21.8159 26.125 16.5 26.125Z" fill="#949494"/>
</svg>
