<svg width="19" height="16" viewBox="0 0 19 16" fill="none" xmlns="http://www.w3.org/2000/svg">
<path d="M1.5 3.8335L8.3041 8.59636C8.85508 8.98205 9.13056 9.17489 9.43022 9.24959C9.69491 9.31557 9.97175 9.31557 10.2364 9.24959C10.5361 9.17489 10.8116 8.98205 11.3626 8.59637L18.1667 3.8335M5.5 14.6668H14.1667C15.5668 14.6668 16.2669 14.6668 16.8016 14.3943C17.272 14.1547 17.6545 13.7722 17.8942 13.3018C18.1667 12.767 18.1667 12.067 18.1667 10.6668V5.3335C18.1667 3.93336 18.1667 3.2333 17.8942 2.69852C17.6545 2.22811 17.272 1.84566 16.8016 1.60598C16.2669 1.3335 15.5668 1.3335 14.1667 1.3335H5.5C4.09987 1.3335 3.3998 1.3335 2.86502 1.60598C2.39462 1.84566 2.01217 2.22811 1.77248 2.69852C1.5 3.2333 1.5 3.93336 1.5 5.3335V10.6668C1.5 12.067 1.5 12.767 1.77248 13.3018C2.01217 13.7722 2.39462 14.1547 2.86502 14.3943C3.3998 14.6668 4.09987 14.6668 5.5 14.6668Z" stroke="white" stroke-width="1.2" stroke-linecap="round" stroke-linejoin="round"/>
</svg>
