<svg width="19" height="18" viewBox="0 0 19 18" fill="none" xmlns="http://www.w3.org/2000/svg">
<path d="M8.24835 3.2436C8.58703 3.19353 8.9364 3.16667 9.29624 3.16667C13.5504 3.16667 16.342 6.9207 17.2798 8.40568C17.3933 8.58542 17.4501 8.67528 17.4818 8.81389C17.5057 8.91799 17.5057 9.08222 17.4818 9.18631C17.45 9.32492 17.3929 9.41538 17.2786 9.59631C17.0287 9.99179 16.6477 10.5476 16.143 11.1504M4.8995 4.59586C3.09777 5.81808 1.87461 7.51615 1.31349 8.4044C1.19947 8.58489 1.14246 8.67514 1.11068 8.81373C1.08681 8.91783 1.0868 9.08203 1.11066 9.18613C1.14242 9.32473 1.19917 9.41459 1.31268 9.59432C2.25052 11.0793 5.04208 14.8333 9.29624 14.8333C11.0116 14.8333 12.4891 14.223 13.7032 13.3972M1.79624 1.5L16.7962 16.5M7.52848 7.23223C7.07607 7.68464 6.79624 8.30964 6.79624 9C6.79624 10.3807 7.91553 11.5 9.29624 11.5C9.9866 11.5 10.6116 11.2202 11.064 10.7678" stroke="white" stroke-width="1.2" stroke-linecap="round" stroke-linejoin="round"/>
</svg>
