<svg width="17" height="22" viewBox="0 0 17 22" fill="none" xmlns="http://www.w3.org/2000/svg">
<path d="M15.3652 10.022L15.3316 10.0386C15.7179 10.4866 16.0538 11.0176 16.3057 11.5651L16.4569 11.8804C17.6494 14.6846 16.8096 17.9202 14.6094 19.9445C12.6107 21.7531 9.82264 22.2343 7.23612 21.9024C4.78397 21.6037 2.53337 20.0772 1.24012 17.9699C0.853818 17.3228 0.517907 16.5927 0.349951 15.8461C0.131609 15.2321 0.0644273 14.6348 0.0140407 14.0209C-0.137119 11.366 0.937796 8.54526 2.97006 6.88598C2.0463 8.89371 2.26464 11.3992 3.62508 13.1414L3.80983 13.3572C4.04497 13.5563 4.33049 13.6226 4.59922 13.5065C4.85115 13.4069 5.0527 13.158 5.0527 12.8594L4.93513 12.4943C3.45713 8.64481 4.7 4.14818 7.84076 1.6095C8.69733 0.9126 9.75545 0.282076 10.864 0C9.72186 2.25661 10.0914 5.21012 11.9221 6.98554C12.6947 7.7654 13.6184 8.27977 14.4246 9.00986L15.3652 10.022ZM11.5358 17.721L11.519 17.7044C12.2748 17.0573 12.6947 15.9456 12.6611 14.9501L12.6107 14.4191C12.2748 12.7598 10.8136 12.2123 9.87302 11.001C9.5875 10.6359 9.33556 10.1713 9.15081 9.70675C8.78131 10.5364 8.74772 11.3162 8.89888 12.2123C9.06684 13.158 9.45313 13.9711 9.25159 14.9501C8.98286 16.0286 8.12628 17.1071 6.63148 17.4556C7.47126 18.2686 8.8317 18.9157 10.1921 18.4511C10.6288 18.335 11.1831 18.0197 11.5358 17.721Z" fill="#949494"/>
</svg>
