<svg width="25" height="31" viewBox="0 0 25 31" fill="none" xmlns="http://www.w3.org/2000/svg">
<path d="M5.20898 0.916992H19.7923C20.9526 0.916992 22.0654 1.37793 22.8859 2.1984C23.7064 3.01887 24.1673 4.13167 24.1673 5.29199V25.7087C24.1673 26.869 23.7064 27.9818 22.8859 28.8023C22.0654 29.6227 20.9526 30.0837 19.7923 30.0837H5.20898C4.04866 30.0837 2.93586 29.6227 2.11539 28.8023C1.29492 27.9818 0.833984 26.869 0.833984 25.7087L0.833984 5.29199C0.833984 4.13167 1.29492 3.01887 2.11539 2.1984C2.93586 1.37793 4.04866 0.916992 5.20898 0.916992ZM5.20898 3.83366C4.82221 3.83366 4.45128 3.9873 4.17779 4.26079C3.9043 4.53429 3.75065 4.90522 3.75065 5.29199V25.7087C3.75065 26.0954 3.9043 26.4664 4.17779 26.7399C4.45128 27.0133 4.82221 27.167 5.20898 27.167H19.7923C20.1791 27.167 20.55 27.0133 20.8235 26.7399C21.097 26.4664 21.2507 26.0954 21.2507 25.7087V5.29199C21.2507 4.90522 21.097 4.53429 20.8235 4.26079C20.55 3.9873 20.1791 3.83366 19.7923 3.83366H5.20898ZM8.12565 5.29199H16.8757C17.2624 5.29199 17.6334 5.44564 17.9068 5.71913C18.1803 5.99262 18.334 6.36355 18.334 6.75033C18.334 7.1371 18.1803 7.50803 17.9068 7.78152C17.6334 8.05501 17.2624 8.20866 16.8757 8.20866H8.12565C7.73888 8.20866 7.36794 8.05501 7.09445 7.78152C6.82096 7.50803 6.66732 7.1371 6.66732 6.75033C6.66732 6.36355 6.82096 5.99262 7.09445 5.71913C7.36794 5.44564 7.73888 5.29199 8.12565 5.29199ZM8.12565 22.792H11.0423C11.4291 22.792 11.8 22.9456 12.0735 23.2191C12.347 23.4926 12.5007 23.8636 12.5007 24.2503C12.5007 24.6371 12.347 25.008 12.0735 25.2815C11.8 25.555 11.4291 25.7087 11.0423 25.7087H8.12565C7.73888 25.7087 7.36794 25.555 7.09445 25.2815C6.82096 25.008 6.66732 24.6371 6.66732 24.2503C6.66732 23.8636 6.82096 23.4926 7.09445 23.2191C7.36794 22.9456 7.73888 22.792 8.12565 22.792ZM8.12565 16.9587H16.8757C17.2624 16.9587 17.6334 17.1123 17.9068 17.3858C18.1803 17.6593 18.334 18.0302 18.334 18.417C18.334 18.8038 18.1803 19.1747 17.9068 19.4482C17.6334 19.7217 17.2624 19.8753 16.8757 19.8753H8.12565C7.73888 19.8753 7.36794 19.7217 7.09445 19.4482C6.82096 19.1747 6.66732 18.8038 6.66732 18.417C6.66732 18.0302 6.82096 17.6593 7.09445 17.3858C7.36794 17.1123 7.73888 16.9587 8.12565 16.9587ZM8.12565 11.1253H16.8757C17.2624 11.1253 17.6334 11.279 17.9068 11.5525C18.1803 11.826 18.334 12.1969 18.334 12.5837C18.334 12.9704 18.1803 13.3414 17.9068 13.6149C17.6334 13.8883 17.2624 14.042 16.8757 14.042H8.12565C7.73888 14.042 7.36794 13.8883 7.09445 13.6149C6.82096 13.3414 6.66732 12.9704 6.66732 12.5837C6.66732 12.1969 6.82096 11.826 7.09445 11.5525C7.36794 11.279 7.73888 11.1253 8.12565 11.1253Z" fill="#949494"/>
</svg>
