<svg width="16" height="18" viewBox="0 0 16 18" fill="none" xmlns="http://www.w3.org/2000/svg">
<path d="M12.3333 7.33333V5.66667C12.3333 3.36548 10.4679 1.5 8.16667 1.5C5.86548 1.5 4 3.36548 4 5.66667V7.33333M8.16667 11.0833V12.75M5.5 16.5H10.8333C12.2335 16.5 12.9335 16.5 13.4683 16.2275C13.9387 15.9878 14.3212 15.6054 14.5608 15.135C14.8333 14.6002 14.8333 13.9001 14.8333 12.5V11.3333C14.8333 9.9332 14.8333 9.23314 14.5608 8.69836C14.3212 8.22795 13.9387 7.8455 13.4683 7.60582C12.9335 7.33333 12.2335 7.33333 10.8333 7.33333H5.5C4.09987 7.33333 3.3998 7.33333 2.86502 7.60582C2.39462 7.8455 2.01217 8.22795 1.77248 8.69836C1.5 9.23314 1.5 9.9332 1.5 11.3333V12.5C1.5 13.9001 1.5 14.6002 1.77248 15.135C2.01217 15.6054 2.39462 15.9878 2.86502 16.2275C3.3998 16.5 4.09987 16.5 5.5 16.5Z" stroke="white" stroke-width="1.2" stroke-linecap="round" stroke-linejoin="round"/>
</svg>
