<svg width="27" height="28" viewBox="0 0 27 28" fill="none" xmlns="http://www.w3.org/2000/svg">
<path d="M22.3657 15.0486V12.5517H20.4514V15.4483C20.4515 15.7043 20.5524 15.9499 20.7319 16.1309L23.3228 18.7446V20.2759H2.26583V18.7446L4.8568 16.1309C5.03631 15.9499 5.13719 15.7043 5.13724 15.4483V11.5862C5.13458 10.2295 5.48689 8.89602 6.15859 7.72058C6.8303 6.54514 7.7976 5.56933 8.96282 4.8917C10.128 4.21408 11.4499 3.85863 12.7949 3.86128C14.1398 3.86392 15.4603 4.22456 16.6229 4.90676V2.74883C15.7118 2.34188 14.7427 2.08251 13.7515 1.98028V0H11.8372V1.97931C9.47745 2.22159 7.29057 3.3379 5.69944 5.1124C4.1083 6.88689 3.22594 9.1935 3.22297 11.5862V15.0486L0.632003 17.6622C0.452493 17.8432 0.351617 18.0888 0.351562 18.3448V21.2414C0.351563 21.4974 0.452403 21.743 0.631901 21.9241C0.811399 22.1052 1.05485 22.2069 1.3087 22.2069H8.00865V23.1724C8.00865 24.4528 8.51286 25.6807 9.41035 26.586C10.3078 27.4914 11.5251 28 12.7943 28C14.0636 28 15.2808 27.4914 16.1783 26.586C17.0758 25.6807 17.58 24.4528 17.58 23.1724V22.2069H24.28C24.5338 22.2069 24.7773 22.1052 24.9568 21.9241C25.1363 21.743 25.2371 21.4974 25.2371 21.2414V18.3448C25.237 18.0888 25.1362 17.8432 24.9567 17.6622L22.3657 15.0486ZM15.6657 23.1724C15.6657 23.9406 15.3632 24.6774 14.8247 25.2206C14.2862 25.7638 13.5559 26.069 12.7943 26.069C12.0328 26.069 11.3024 25.7638 10.7639 25.2206C10.2254 24.6774 9.92292 23.9406 9.92292 23.1724V22.2069H15.6657V23.1724Z" fill="white"/>
<path d="M22.3676 10.6206C24.4821 10.6206 26.1962 8.89152 26.1962 6.75855C26.1962 4.62559 24.4821 2.89648 22.3676 2.89648C20.2532 2.89648 18.5391 4.62559 18.5391 6.75855C18.5391 8.89152 20.2532 10.6206 22.3676 10.6206Z" fill="#FF7373"/>
</svg>
