<svg width="19" height="18" viewBox="0 0 19 18" fill="none" xmlns="http://www.w3.org/2000/svg">
<path d="M15.6667 16.5L13.1667 14M13.1667 14L15.6667 11.5M13.1667 14H18.1667M9.83333 11.9167H6.08334C4.92037 11.9167 4.33888 11.9167 3.86572 12.0602C2.80038 12.3834 1.9667 13.217 1.64353 14.2824C1.5 14.7555 1.5 15.337 1.5 16.5M11.9167 5.25C11.9167 7.32107 10.2377 9 8.16667 9C6.0956 9 4.41667 7.32107 4.41667 5.25C4.41667 3.17893 6.0956 1.5 8.16667 1.5C10.2377 1.5 11.9167 3.17893 11.9167 5.25Z" stroke="white" stroke-width="1.5" stroke-linecap="round" stroke-linejoin="round"/>
</svg>
