<svg width="19" height="18" viewBox="0 0 19 18" fill="none" xmlns="http://www.w3.org/2000/svg">
<path d="M4.26358 15.199C4.77052 14.0047 5.9541 13.167 7.33333 13.167H12.3333C13.7126 13.167 14.8961 14.0047 15.4031 15.199M13.1667 6.91699C13.1667 8.75794 11.6743 10.2503 9.83333 10.2503C7.99238 10.2503 6.5 8.75794 6.5 6.91699C6.5 5.07604 7.99238 3.58366 9.83333 3.58366C11.6743 3.58366 13.1667 5.07604 13.1667 6.91699ZM18.1667 9.00033C18.1667 13.6027 14.4357 17.3337 9.83333 17.3337C5.23096 17.3337 1.5 13.6027 1.5 9.00033C1.5 4.39795 5.23096 0.666992 9.83333 0.666992C14.4357 0.666992 18.1667 4.39795 18.1667 9.00033Z" stroke="white" stroke-width="1.2" stroke-linecap="round" stroke-linejoin="round"/>
</svg>
