<svg width="29" height="28" viewBox="0 0 29 28" fill="none" xmlns="http://www.w3.org/2000/svg">
<path d="M2.58203 2.33398H25.782V12.834H2.58203V2.33398ZM9.54435 7.58398H7.21971V9.92198H9.54435V7.58398ZM2.58203 15.1673H22.012C20.8023 15.1674 19.6199 15.5298 18.6158 16.2084C17.6117 16.887 16.8312 17.8509 16.374 18.9774C15.9168 20.1039 15.8035 21.3418 16.0486 22.5333C16.2937 23.7247 16.8861 24.8158 17.7502 25.6673H2.58203V15.1673ZM9.54435 18.084H7.21971V20.422H9.54435V18.084Z" fill="white"/>
<path d="M22.0118 16.916C21.3462 16.9164 20.6895 17.0703 20.0924 17.3661C19.4952 17.6618 18.9735 18.0914 18.5674 18.6219C18.1613 19.1523 17.8817 19.7694 17.75 20.4256C17.6184 21.0818 17.6382 21.7596 17.8079 22.4069C17.9777 23.0543 18.2929 23.6537 18.7293 24.1592C19.1657 24.6648 19.7116 25.0628 20.325 25.3227C20.9384 25.5827 21.6029 25.6976 22.2674 25.6586C22.9319 25.6196 23.5786 25.4278 24.1578 25.0979L26.0718 27.024L27.7132 25.3743L25.7981 23.4482C26.1731 22.7826 26.3681 22.0297 26.3635 21.2647C26.3589 20.4996 26.1549 19.7491 25.7719 19.0881C25.3889 18.4271 24.8402 17.8787 24.1807 17.4976C23.5211 17.1164 22.7725 16.9159 22.0118 16.916ZM19.983 21.291C19.983 20.7495 20.1968 20.2302 20.5775 19.8473C20.9582 19.4645 21.4746 19.2493 22.013 19.2493C22.5514 19.2493 23.0677 19.4645 23.4484 19.8473C23.8291 20.2302 24.043 20.7495 24.043 21.291C24.043 21.8325 23.8291 22.3518 23.4484 22.7347C23.0677 23.1176 22.5514 23.3327 22.013 23.3327C21.4746 23.3327 20.9582 23.1176 20.5775 22.7347C20.1968 22.3518 19.983 21.8325 19.983 21.291Z" fill="white"/>
</svg>
