<svg width="17" height="18" viewBox="0 0 17 18" fill="none" xmlns="http://www.w3.org/2000/svg">
<path d="M13.68 4.65C12.8344 3.55151 11.6869 2.72331 10.378 2.26672C9.06909 1.81014 7.65546 1.74497 6.31009 2.0792C4.96471 2.41342 3.74592 3.13254 2.80283 4.14857C1.85974 5.1646 1.23325 6.43349 1 7.8M14.03 1V5H10.03M2.378 13.35C3.22338 14.4489 4.37081 15.2775 5.67984 15.7344C6.98887 16.1912 8.40271 16.2565 9.74827 15.9223C11.0938 15.588 12.3128 14.8687 13.2558 13.8523C14.1989 12.836 14.8252 11.5668 15.058 10.2M2.029 17V13H6.029" stroke="#949494" stroke-width="2" stroke-linecap="round" stroke-linejoin="round"/>
</svg>
