<svg width="24" height="29" viewBox="0 0 24 29" fill="none" xmlns="http://www.w3.org/2000/svg">
<path d="M13.5 8.31298L9.5 12.313L14.8333 14.9796L10.8333 18.9796M22.8333 14.313C22.8333 20.8576 15.6947 25.6175 13.0973 27.1328C12.8021 27.305 12.6545 27.3911 12.4462 27.4358C12.2846 27.4705 12.0487 27.4705 11.8871 27.4358C11.6788 27.3911 11.5312 27.305 11.236 27.1328C8.63861 25.6175 1.5 20.8576 1.5 14.313V7.93645C1.5 6.87043 1.5 6.33742 1.67435 5.87925C1.82837 5.4745 2.07864 5.11335 2.40354 4.82702C2.77133 4.5029 3.2704 4.31575 4.26854 3.94144L11.4176 1.26054C11.6948 1.1566 11.8334 1.10462 11.976 1.08402C12.1024 1.06574 12.2309 1.06574 12.3574 1.08402C12.4999 1.10462 12.6385 1.1566 12.9157 1.26054L20.0648 3.94144C21.0629 4.31575 21.562 4.5029 21.9298 4.82702C22.2547 5.11335 22.505 5.4745 22.659 5.87925C22.8333 6.33742 22.8333 6.87043 22.8333 7.93645V14.313Z" stroke="white" stroke-width="2" stroke-linecap="round" stroke-linejoin="round"/>
</svg>
