<svg width="22" height="20" viewBox="0 0 22 20" fill="none" xmlns="http://www.w3.org/2000/svg">
<path d="M17.9345 11.945L17.2645 8.297C16.9745 6.721 16.8295 5.933 16.2565 5.467C15.6835 5.001 14.8595 5 13.2125 5H8.78651C7.13951 5 6.31651 5 5.74251 5.467C5.16951 5.933 5.02451 6.721 4.73451 8.297L4.06451 11.945C3.46451 15.216 3.16351 16.852 4.08851 17.925C5.01351 19 6.72351 19 10.1415 19H11.8575C15.2755 19 16.9855 19 17.9105 17.926C18.8355 16.852 18.5355 15.216 17.9345 11.946" stroke="white" stroke-width="1.5" stroke-linecap="round" stroke-linejoin="round"/>
<path d="M11 8.5V15M8.5 13L11 15.5L13.5 13M20 9C20.1545 8.92292 20.2946 8.81974 20.414 8.695C21 8.089 21 7.11 21 5.152C21 3.194 21 2.216 20.414 1.608C19.828 1 18.886 1 17 1H5C3.114 1 2.172 1 1.586 1.608C1 2.216 1 3.195 1 5.152C1 7.109 1 8.088 1.586 8.695C1.706 8.82033 1.844 8.922 2 9" stroke="white" stroke-width="1.5" stroke-linecap="round" stroke-linejoin="round"/>
</svg>
