<svg width="37" height="37" viewBox="0 0 37 37" fill="none" xmlns="http://www.w3.org/2000/svg">
<path d="M20 7.5C22.8879 7.5 25.3189 8.47154 27.3223 10.416C29.3248 12.3598 30.3193 14.7115 30.3184 17.5V17.9473L30.7627 17.9971C32.4227 18.184 33.7847 18.8729 34.873 20.0684C35.9626 21.2653 36.501 22.652 36.5 24.25L36.4932 24.5732C36.4203 26.1715 35.8009 27.5307 34.624 28.6738C33.3684 29.8934 31.8521 30.5009 30.0459 30.5H22.0459V21.4316L23.6758 22.9639L24.0234 23.291L24.3662 22.959L26.5303 20.8584L26.8994 20.5L26.5303 20.1416L20.3486 14.1416L20 13.8027L19.6514 14.1416L13.4697 20.1416L13.1006 20.5L13.4697 20.8584L15.6338 22.959L15.9766 23.291L16.3242 22.9639L17.9541 21.4316V30.5H11.5C9.28066 30.5 7.40242 29.759 5.83691 28.2744C4.27497 26.7931 3.50098 24.9992 3.5 22.8623L3.50684 22.5205C3.57332 20.8226 4.13813 19.3075 5.20703 17.9609C6.34353 16.5293 7.82578 15.6152 9.67383 15.2139L9.96875 15.1494L10.0498 14.8594C10.6636 12.6675 11.8861 10.8992 13.7285 9.54004C15.5726 8.17976 17.6576 7.5 20 7.5Z" fill="#949494" stroke="black"/>
</svg>
