<svg width="65" height="65" viewBox="0 0 65 65" fill="none" xmlns="http://www.w3.org/2000/svg">
<path d="M16.927 18.9577C16.927 14.8275 18.5677 10.8665 21.4882 7.94597C24.4087 5.02548 28.3697 3.38477 32.4999 3.38477C36.6301 3.38477 40.5911 5.02548 43.5116 7.94597C46.4321 10.8665 48.0728 14.8275 48.0728 18.9577C48.0728 23.0879 46.4321 27.0489 43.5116 29.9694C40.5911 32.8899 36.6301 34.5306 32.4999 34.5306C28.3697 34.5306 24.4087 32.8899 21.4882 29.9694C18.5677 27.0489 16.927 23.0879 16.927 18.9577ZM31.9528 38.6229C32.0694 38.6053 32.187 38.5954 32.3049 38.5931H32.6949C32.8141 38.5931 32.9314 38.603 33.047 38.6229L52.8043 42.0977L52.9072 42.1193C56.5472 42.9589 60.458 45.2691 61.2191 49.7568L61.2299 49.8354L61.5387 52.2106V52.216C62.2537 57.6571 57.9393 61.6139 52.8449 61.6139C52.7325 61.6119 52.6204 61.6028 52.5091 61.5868H12.1549C7.06054 61.5868 2.74345 57.6273 3.46116 52.1835L3.76991 49.83L3.78345 49.7487C4.54179 45.3423 8.48512 42.9021 12.117 42.1139L12.1955 42.0977L31.9528 38.6229Z" fill="black"/>
</svg>
