<svg width="30" height="30" viewBox="0 0 30 30" fill="none" xmlns="http://www.w3.org/2000/svg">
<path d="M10.8333 14.7371L13.5 17.4038L19.5 11.4038M22.7016 5.40182C22.9761 6.06585 23.5031 6.59367 24.1667 6.86924L26.4936 7.83311C27.1577 8.10819 27.6853 8.6358 27.9604 9.29989C28.2354 9.96397 28.2354 10.7101 27.9604 11.3742L26.9972 13.6995C26.722 14.3639 26.7217 15.1108 26.9981 15.7749L27.9596 18.0995C28.0959 18.4285 28.1661 18.781 28.1662 19.1371C28.1663 19.4931 28.0962 19.8457 27.9599 20.1747C27.8236 20.5036 27.6239 20.8025 27.3721 21.0542C27.1203 21.306 26.8214 21.5056 26.4924 21.6418L24.1671 22.605C23.5031 22.8795 22.9753 23.4066 22.6998 24.0702L21.7359 26.3972C21.4609 27.0613 20.9333 27.5889 20.2692 27.8639C19.6051 28.139 18.859 28.139 18.195 27.8639L15.8697 26.9008C15.2056 26.6264 14.4598 26.6269 13.7961 26.9023L11.4692 27.8648C10.8055 28.1393 10.06 28.139 9.39649 27.8642C8.73297 27.5893 8.20567 27.0623 7.93042 26.399L6.96629 24.0713C6.69173 23.4072 6.16473 22.8794 5.50113 22.6038L3.17422 21.64C2.51045 21.365 1.98301 20.8377 1.70784 20.174C1.43268 19.5103 1.4323 18.7645 1.70681 18.1005L2.66995 15.7752C2.94434 15.1111 2.94378 14.3652 2.66839 13.7015L1.70663 11.3729C1.57027 11.0439 1.50006 10.6914 1.5 10.3353C1.49994 9.97926 1.57004 9.62668 1.7063 9.29772C1.84255 8.96876 2.04229 8.66988 2.29409 8.41815C2.54589 8.16641 2.84483 7.96677 3.17382 7.83061L5.49906 6.86743C6.16249 6.5931 6.68998 6.06674 6.96574 5.40388L7.92958 3.07689C8.20464 2.4128 8.73223 1.88519 9.3963 1.61011C10.0604 1.33504 10.8065 1.33504 11.4706 1.61011L13.7958 2.5733C14.4599 2.84769 15.2057 2.84713 15.8694 2.57174L18.1973 1.61161C18.8613 1.33669 19.6072 1.33674 20.2712 1.61176C20.9351 1.88678 21.4626 2.41425 21.7377 3.07816L22.7019 5.40585L22.7016 5.40182Z" stroke="white" stroke-width="2" stroke-linecap="round" stroke-linejoin="round"/>
</svg>
